# xmcd
#
# Track frame offsets: 
#        150
#        18654
#        37160
#        53132
#        72085
#        89371
#        107793
#        125542
#        143761
#        165918
#        181788
#        200627
#        221427
#
# Disc length: 3186 seconds
#
# Revision: 0
# Processed by: cddbd v1.4PL0 Copyright (c) Steve Scherf et al.
# Submitted via: ExactAudioCopy v0.90a11
#
DISCID=b60c700d
DTITLE=Andrew Roachford - Heart of the matter (vol.1)
DYEAR=1900
DGENRE=
TTITLE0=The pressure
TTITLE1=Take u high
TTITLE2=Love games
TTITLE3=Was it love
TTITLE4=Ordinary live
TTITLE5=In and out of my live
TTITLE6=Walk on
TTITLE7=Heaven is (live)
TTITLE8=Ghetto of the world
TTITLE9=Making money
TTITLE10=Heart of the matter
TTITLE11=The music
TTITLE12=???
EXTD=
EXTT0=
EXTT1=
EXTT2=
EXTT3=
EXTT4=
EXTT5=
EXTT6=
EXTT7=
EXTT8=
EXTT9=
EXTT10=
EXTT11=
EXTT12=
PLAYORDER=
